<svg xmlns="http://www.w3.org/2000/svg" viewBox="0 0 48 48" id="joystick">
  <path fill-rule="evenodd" d="M4,26.44c.03,3.55,.22,8.21,1.46,10.9,.78,1.67,1.95,2.66,3.54,2.66,2.49,0,3.99-1.51,4.87-3.39-3.12-4.5-6.41-8.04-9.86-10.17h0Zm39.99,0c-3.45,2.13-6.74,5.67-9.86,10.17,.87,1.87,2.38,3.39,4.87,3.39,1.58,0,2.76-.98,3.54-2.66,1.24-2.68,1.43-7.35,1.46-10.9h0Zm-14.01-15.38c-.05,1.13-.26,3.76-1.13,5.96-.88,2.22-2.42,3.98-4.85,3.98s-3.97-1.76-4.85-3.98c-.87-2.21-1.08-4.84-1.13-5.96h-.02v-.56c0-1.38-1.12-2.5-2.5-2.5h-3.01c-1.38,0-2.5,1.12-2.5,2.5v.66c-1.15,.37-2.3,1.35-3.25,2.87-1.49,2.36-2.59,6.04-2.73,10.12,3.7,1.99,7.27,5.5,10.62,10.1,.15-.72,.24-1.39,.3-1.94,1.54,.37,2.88,.38,4.08-.13,.91-.39,1.76-1.07,2.53-2.18h4.92c.77,1.11,1.62,1.79,2.53,2.18,1.2,.51,2.54,.5,4.08,.13,.05,.55,.14,1.22,.3,1.94,3.36-4.6,6.92-8.11,10.62-10.1-.14-4.08-1.25-7.76-2.73-10.12-.96-1.52-2.1-2.5-3.25-2.87v-.66c0-1.38-1.12-2.5-2.5-2.5h-3.01c-1.38,0-2.5,1.12-2.5,2.5v.56h-.02Zm1.02,12.94c-1.66,0-3,1.34-3,3s1.34,3,3,3,3-1.34,3-3-1.34-3-3-3h0Zm-14,0c-1.66,0-3,1.34-3,3s1.34,3,3,3,3-1.34,3-3-1.34-3-3-3h0Zm14,2c.55,0,1,.45,1,1s-.45,1-1,1-1-.45-1-1,.45-1,1-1h0Zm-14,0c.55,0,1,.45,1,1s-.45,1-1,1-1-.45-1-1,.45-1,1-1h0Zm9-2h1c.55,0,1-.45,1-1s-.45-1-1-1h-1c-.55,0-1,.45-1,1s.45,1,1,1h0Zm-4-2h-1c-.55,0-1,.45-1,1s.45,1,1,1h1c.55,0,1-.45,1-1s-.45-1-1-1h0Zm13-8c-2.76,0-5,2.24-5,5s2.24,5,5,5,5-2.24,5-5-2.24-5-5-5h0ZM14,23v-2c0-.55-.45-1-1-1s-1,.45-1,1v2c0,.55,.45,1,1,1s1-.45,1-1h0Zm21-7c1.66,0,3,1.34,3,3s-1.34,3-3,3-3-1.34-3-3,1.34-3,3-3h0Zm-26,4h2c.55,0,1-.45,1-1s-.45-1-1-1h-2c-.55,0-1,.45-1,1s.45,1,1,1h0Zm6,0h2c.55,0,1-.45,1-1s-.45-1-1-1h-2c-.55,0-1,.45-1,1s.45,1,1,1h0Zm5.04-8.49c.08,1.15,.31,3.1,.97,4.78,.56,1.43,1.42,2.71,2.99,2.71s2.43-1.28,2.99-2.71c.66-1.67,.89-3.62,.97-4.78-.92,.24-2.02,.49-3.96,.49s-3.04-.25-3.96-.49h0Zm-6.04,5.49v-2c0-.55-.45-1-1-1s-1,.45-1,1v2c0,.55,.45,1,1,1s1-.45,1-1h0Zm9,0h2c.55,0,1-.45,1-1s-.45-1-1-1h-2c-.55,0-1,.45-1,1s.45,1,1,1h0Z"></path>
</svg>
